<svg width="28" height="24" viewBox="0 0 28 24" fill="none" xmlns="http://www.w3.org/2000/svg">
<g clip-path="url(#clip0_50_22)">
<path d="M2.06604 4.0625C3.44104 2.6875 5.22854 2 7.01604 2C8.80354 2 10.6598 2.6875 12.0348 4.0625C13.4098 2.6875 15.266 2 17.0535 2C18.841 2 20.6285 2.6875 22.0035 4.0625C23.3785 5.4375 24.066 7.225 24.066 9.0125C24.066 10.8 23.3785 12.6562 22.0035 14.0312L12.0348 24L2.06604 14.0312C0.69104 12.6562 0.00354004 10.8 0.00354004 9.0125C0.00354004 7.225 0.69104 5.4375 2.06604 4.0625ZM7.01604 3.58125C5.64104 3.58125 4.26604 4.13125 3.16604 5.1625C2.13479 6.2625 1.58479 7.6375 1.58479 9.0125C1.58479 10.3875 2.13479 11.8313 3.16604 12.8625L12.0348 21.7312L20.9035 12.8625C21.9348 11.8313 22.4848 10.3875 22.4848 9.0125C22.4848 7.6375 21.9348 6.2625 20.9035 5.1625C19.8035 4.13125 18.4285 3.58125 17.0535 3.58125C15.6785 3.58125 14.2348 4.13125 13.2035 5.1625L12.0348 6.33125L10.866 5.1625C9.83479 4.13125 8.39104 3.58125 7.01604 3.58125Z" fill="black"/>
</g>
<rect x="16" width="12" height="12" rx="6" fill="#78B833"/>
<path d="M22.214 3.2V9.5H21.566V3.776H20.081V3.2H22.214Z" fill="black"/>
<defs>
<clipPath id="clip0_50_22">
<rect width="24.0697" height="22" fill="white" transform="translate(0 2)"/>
</clipPath>
</defs>
</svg>
