<svg width="22" height="22" viewBox="0 0 22 22" fill="none" xmlns="http://www.w3.org/2000/svg">
<path d="M16.72 12.96L21.28 17.52C21.76 18 22 18.72 22 19.36C22 20.08 21.76 20.72 21.28 21.2V21.28C20.72 21.76 20.08 22 19.36 22C18.72 22 18 21.76 17.52 21.28L12.96 16.72C11.68 17.36 10.24 17.68 8.88 17.68C6.56 17.68 4.32 16.8 2.56 15.12C0.88 13.36 0 11.12 0 8.88C0 6.56 0.88 4.32 2.56 2.56C4.32 0.88 6.56 0 8.88 0C11.12 0 13.36 0.88 15.12 2.56C16.8 4.32 17.68 6.56 17.68 8.88C17.68 10.24 17.36 11.68 16.72 12.96ZM15.76 14.32C15.6 14.64 15.36 14.88 15.12 15.12C14.88 15.36 14.64 15.6 14.32 15.76L18.64 20.08C18.88 20.32 19.12 20.4 19.36 20.4C19.6 20.4 19.92 20.32 20.08 20.16V20.08C20.32 19.92 20.4 19.68 20.4 19.36C20.4 19.12 20.32 18.88 20.08 18.64L15.76 14.32ZM8.88 1.6C6.96 1.6 5.12 2.32 3.76 3.76C2.32 5.12 1.6 6.96 1.6 8.88C1.6 10.72 2.32 12.56 3.76 13.92C5.12 15.36 6.96 16.08 8.88 16.08C10.72 16.08 12.56 15.36 13.92 13.92C15.36 12.56 16.08 10.72 16.08 8.88C16.08 6.96 15.36 5.12 13.92 3.76C12.56 2.32 10.72 1.6 8.88 1.6Z" fill="black"/>
</svg>
