<svg width="14" height="13" viewBox="0 0 14 13" fill="none" xmlns="http://www.w3.org/2000/svg">
<g clip-path="url(#clip0_58_122)">
<path d="M0.730924 1.58032C0.337349 1.58032 0 1.24297 0 0.849393C0 0.455819 0.337349 0.118469 0.730924 0.118469H10.3454C10.739 0.118469 11.0763 0.455819 11.0763 0.849393C11.0763 1.24297 10.739 1.58032 10.3454 1.58032H0.730924Z" fill="#FEFEFE"/>
<path d="M0.730924 7.25903C0.337349 7.25903 0 6.92168 0 6.5281C0 6.0783 0.337349 5.79718 0.730924 5.79718H5.95984C6.35341 5.79718 6.69076 6.0783 6.69076 6.5281C6.69076 6.92168 6.35341 7.25903 5.95984 7.25903H0.730924Z" fill="#FEFEFE"/>
<path d="M0.730924 12.8815C0.337349 12.8815 0 12.6004 0 12.1506C0 11.757 0.337349 11.4197 0.730924 11.4197H13.2129C13.6627 11.4197 14 11.757 14 12.1506C14 12.6004 13.6627 12.8815 13.2129 12.8815H0.730924Z" fill="#FEFEFE"/>
</g>
<defs>
<clipPath id="clip0_58_122">
<rect width="14" height="13" fill="white"/>
</clipPath>
</defs>
</svg>
