<svg width="24" height="22" viewBox="0 0 24 22" fill="none" xmlns="http://www.w3.org/2000/svg">
<g clip-path="url(#clip0_8_58)">
<path d="M19.4538 7.08022C19.4538 7.58834 19.1635 7.95129 18.7279 8.02387C18.2924 8.02387 17.8569 7.73352 17.7843 7.29799C17.6391 5.70104 16.8406 4.24926 15.7518 3.23302C14.5904 2.28937 13.1386 1.63607 11.4691 1.63607C9.87212 1.63607 8.42034 2.28937 7.25892 3.23302C6.09751 4.24926 5.37162 5.70104 5.15385 7.29799C5.15385 7.73352 4.71832 8.02387 4.28279 8.02387C3.84726 7.95129 3.48431 7.58834 3.5569 7.08022C3.77467 5.12033 4.79091 3.30561 6.17009 2.07161C7.62187 0.837599 9.43658 0.0391235 11.4691 0.0391235C13.5015 0.0391235 15.3889 0.837599 16.8406 2.07161C18.2198 3.30561 19.1635 5.12033 19.4538 7.08022Z" fill="black"/>
<path d="M2.90355 20.2188L0.145177 12.1614C0 11.7259 0 11.3629 0 10.9274C0.0725886 10.5645 0.217766 10.1289 0.508121 9.83859C0.725886 9.47564 1.08883 9.18529 1.37918 9.04011C1.74213 8.82234 2.17766 8.74976 2.61319 8.74976H20.3974C20.8329 8.74976 21.1959 8.82234 21.5588 9.04011C21.9218 9.18529 22.2847 9.47564 22.5025 9.83859C22.7202 10.1289 22.938 10.5645 22.938 10.9274C23.0106 11.3629 23.0106 11.7259 22.8654 12.1614L20.1071 20.2188C19.8893 20.7995 19.5989 21.235 19.1634 21.5254C18.7279 21.8157 18.1472 21.9609 17.639 21.9609H5.37156C4.79085 21.9609 4.28273 21.8157 3.8472 21.5254C3.41167 21.235 3.12131 20.7995 2.90355 20.2188ZM1.66954 11.6533L4.42791 19.7106C4.5005 19.9284 4.64567 20.0736 4.79085 20.2188C4.93603 20.2914 5.15379 20.3639 5.37156 20.3639H17.639C17.8568 20.3639 18.0746 20.2914 18.2198 20.2188C18.3649 20.0736 18.5101 19.9284 18.5827 19.7106L21.3411 11.6533C21.3411 11.4355 21.4137 11.2904 21.3411 11.1452C21.3411 11 21.2685 10.8548 21.1959 10.7822C21.1233 10.6371 20.9781 10.4919 20.8329 10.4919C20.6878 10.4193 20.5426 10.3467 20.3974 10.3467H2.61319C2.39543 10.3467 2.25025 10.4193 2.17766 10.4919C2.03248 10.4919 1.8873 10.6371 1.81472 10.7822C1.74213 10.8548 1.66954 11 1.59695 11.1452C1.59695 11.2904 1.59695 11.4355 1.66954 11.6533Z" fill="black"/>
<path d="M5.15385 12.8873C5.00868 12.4518 5.29903 12.0163 5.73456 11.8711C6.1701 11.7985 6.60563 12.0163 6.67822 12.4518L8.0574 17.8234C8.12999 18.2589 7.83963 18.6944 7.4041 18.8396C6.96857 18.9122 6.53304 18.6944 6.46045 18.2589L5.15385 12.8873Z" fill="black"/>
<path d="M16.2598 12.4518C16.405 12.0163 16.8405 11.7985 17.276 11.8711C17.7116 12.0163 17.9293 12.4518 17.8568 12.8873L16.5502 18.2589C16.405 18.6944 15.9695 18.9122 15.5339 18.8396C15.0984 18.6944 14.8806 18.2589 14.9532 17.8234L16.2598 12.4518Z" fill="black"/>
<path d="M10.5979 12.7421C10.5253 12.234 10.8883 11.8711 11.3238 11.8711C11.8319 11.8711 12.1949 12.234 12.1949 12.6695L12.4126 18.0411C12.4126 18.4766 12.0497 18.8396 11.6142 18.8396C11.1786 18.8396 10.8157 18.5492 10.8157 18.1137L10.5979 12.7421Z" fill="black"/>
</g>
<defs>
<clipPath id="clip0_8_58">
<rect width="23.0106" height="22" fill="white"/>
</clipPath>
</defs>
</svg>
