<svg width="36" height="36" viewBox="0 0 36 36" fill="none" xmlns="http://www.w3.org/2000/svg">
<g clip-path="url(#clip0_58_156)">
<path d="M21.812 16.9624C23.1653 17.4135 24.3383 18.2256 25.1503 19.3083C25.9623 20.391 26.4134 21.7443 26.4134 23.0977V28.9623H9V23.0977C9 21.7443 9.45113 20.391 10.2632 19.3083C11.0752 18.2256 12.2481 17.4135 13.6015 16.9624L13.9624 16.8722L14.2331 17.1429C14.7744 17.4135 15.3158 17.6842 15.9473 17.8647C16.4887 18.0451 17.1203 18.1353 17.7518 18.1353C18.3834 18.1353 18.9248 18.0451 19.5563 17.8647C20.0977 17.6842 20.639 17.4135 21.1804 17.1429L21.4511 16.8722L21.812 16.9624ZM17.7518 7.03766C19.1052 7.03766 20.3684 7.57901 21.2706 8.48126C22.1729 9.38351 22.7142 10.6467 22.7142 12.0903C22.7142 13.4436 22.1729 14.7068 21.2706 15.609C20.3684 16.5113 19.1052 17.1429 17.7518 17.1429C16.3082 17.1429 15.0451 16.5113 14.1428 15.609C13.2406 14.7068 12.6992 13.4436 12.6992 12.0903C12.6992 10.6467 13.2406 9.38351 14.1428 8.48126C15.0451 7.57901 16.3082 7.03766 17.7518 7.03766V7.03766ZM20.0977 9.65418C19.4661 9.02261 18.6541 8.66171 17.7518 8.66171C16.7594 8.66171 15.9473 9.02261 15.3158 9.65418C14.6842 10.2858 14.3233 11.0978 14.3233 12.0903C14.3233 12.9925 14.6842 13.8948 15.3158 14.5263C15.9473 15.0677 16.7594 15.5188 17.7518 15.5188C18.6541 15.5188 19.4661 15.0677 20.0977 14.5263C20.7293 13.8948 21.0902 12.9925 21.0902 12.0903C21.0902 11.0978 20.7293 10.2858 20.0977 9.65418ZM23.8871 20.3007C23.3458 19.5789 22.624 18.9474 21.7217 18.6767C21.1804 18.9474 20.639 19.218 20.0075 19.3985C19.2857 19.6692 18.4736 19.7594 17.7518 19.7594C16.9398 19.7594 16.1278 19.6692 15.406 19.3985C14.7744 19.218 14.2331 18.9474 13.6917 18.6767C12.8797 18.9474 12.0677 19.5789 11.5263 20.3007C10.985 21.1128 10.6241 22.1052 10.6241 23.0977V27.3383H24.7894V23.0977C24.7894 22.1052 24.4285 21.1128 23.8871 20.3007Z" fill="black"/>
</g>
<circle cx="18" cy="18" r="17" stroke="#156D39" stroke-width="2"/>
<defs>
<clipPath id="clip0_58_156">
<rect width="17.4134" height="22" fill="white" transform="translate(9 7)"/>
</clipPath>
</defs>
</svg>
