<svg width="160" height="66" viewBox="0 0 160 66" fill="none" xmlns="http://www.w3.org/2000/svg">
<g clip-path="url(#clip0_4_10)">
<path d="M145.327 7.03078C143.175 7.02067 141.265 5.89861 140.175 3.99413C139.741 3.23598 140.003 2.26756 140.762 1.83289C141.522 1.40024 142.488 1.66104 142.923 2.42122C143.699 3.7778 144.957 3.889 145.474 3.86069C146.507 3.8243 147.433 3.25822 147.834 2.42324C148.21 1.63476 149.158 1.30117 149.944 1.67924C150.733 2.05528 151.066 3.00145 150.688 3.78993C149.772 5.70452 147.819 6.94384 145.591 7.02674C145.502 7.03078 145.414 7.03078 145.327 7.03078Z" fill="#096647"/>
<path d="M54.0188 26.2332C48.3256 26.2029 46.8417 22.3293 46.8538 20.2853C46.872 16.8989 49.5366 14.4101 53.4851 14.0907C56.4146 13.8582 58.59 14.8124 60.2134 16.0376C60.268 14.8205 60.0982 13.6135 59.6959 12.6047C59.1904 11.329 58.3615 10.4495 57.2354 9.98655C54.7487 8.96355 51.7262 9.98048 50.6365 12.2004C50.2523 12.9888 49.3021 13.3123 48.5197 12.9282C47.7333 12.542 47.4098 11.5938 47.7939 10.8094C49.6195 7.07929 54.3949 5.39922 58.4384 7.05705C60.361 7.84755 61.8147 9.36183 62.6395 11.4341C63.5109 13.6257 63.616 16.3651 62.9832 18.8397C63.9213 20.0588 64.7421 21.5428 65.5589 24.1104C65.8238 24.9434 65.3608 25.8329 64.5278 26.0998C63.6969 26.3626 62.8053 25.9017 62.5405 25.0687C62.1624 23.8759 61.7965 22.9843 61.4184 22.2585C59.981 24.2075 57.383 26.2494 54.0188 26.2332ZM54.4151 17.2224C54.1947 17.2224 53.9683 17.2304 53.7378 17.2486C52.0295 17.3861 50.032 18.2676 50.0219 20.3035C50.0178 20.5845 50.1189 23.0429 54.035 23.0652C56.7179 23.0793 58.7174 20.9403 59.3906 19.5332C57.8318 17.9522 56.2812 17.2325 54.4151 17.2224Z" fill="#096647"/>
<path d="M47.9071 58.6296C42.4889 58.5993 40.5399 55.0552 40.5541 52.6816C40.5702 49.2952 43.2369 46.8065 47.1854 46.487C50.1108 46.2545 52.2903 47.2068 53.9137 48.4319C53.9683 47.2149 53.7985 46.0079 53.3961 44.999C52.8907 43.7253 52.0618 42.8439 50.9337 42.3809C48.451 41.3599 45.4265 42.3748 44.3367 44.5987C43.9526 45.3832 43.0064 45.7066 42.218 45.3225C41.4335 44.9384 41.11 43.9902 41.4942 43.2037C43.3198 39.4756 48.0931 37.7915 52.1366 39.4514C54.0613 40.2419 55.5149 41.7562 56.3378 43.8284C57.2112 46.02 57.3163 48.7595 56.6835 51.2341C57.6216 52.4532 58.4424 53.9392 59.2572 56.5068C59.522 57.3397 59.0611 58.2293 58.2281 58.4941C57.3951 58.757 56.5056 58.298 56.2407 57.463C55.8606 56.2682 55.4927 55.3726 55.1146 54.6447C53.6367 56.624 50.9842 58.6458 47.9071 58.6296ZM48.1154 49.6167C47.893 49.6167 47.6686 49.6248 47.4381 49.645C45.7297 49.7804 43.7322 50.6639 43.7201 52.6978C43.7161 53.46 44.4641 55.4433 47.9233 55.4615C50.2079 55.4737 52.363 53.4438 53.0909 51.9295C51.5301 50.3465 49.9794 49.6268 48.1154 49.6167Z" fill="#096647"/>
<path d="M1.57494 58.3425C0.699524 58.3385 -0.00404139 57.6268 2.08291e-06 56.7534L0.0727847 40.1084C0.0768281 39.235 0.790502 38.5274 1.66389 38.5315H1.66591C2.53931 38.5375 3.24489 39.2492 3.24085 40.1226L3.16604 56.7676C3.162 57.641 2.45035 58.3465 1.57494 58.3425Z" fill="#096647"/>
<path d="M12.5954 26.0129C8.31339 25.9906 0.230478 23.2613 0.285065 13.096C0.305283 8.97163 2.50898 4.84527 6.03287 2.33022C9.31819 -0.0149927 13.1757 -0.611406 16.8997 0.644094C19.1681 1.40831 20.8542 3.00346 21.6468 5.13235C22.4413 7.26327 22.2634 9.72574 21.1858 11.5554C20.0213 13.5327 17.7953 14.8387 15.3834 14.9661C13.1939 15.0712 11.2186 14.214 10.0642 12.6532C9.54463 11.9497 9.69424 10.959 10.3958 10.4394C11.1014 9.91781 12.092 10.0694 12.6096 10.771C13.1312 11.4766 14.1178 11.8668 15.2176 11.8021C16.5843 11.7313 17.8236 11.0197 18.4565 9.94814C18.9457 9.1172 19.2045 7.64942 18.6788 6.23622C18.3594 5.37496 17.6154 4.22661 15.8888 3.64233C13.1534 2.72244 10.3048 3.17127 7.87265 4.90794C5.20193 6.81242 3.46728 10.0351 3.45111 13.1142C3.40056 22.6871 12.2376 22.8428 12.6136 22.8448C14.9002 22.8569 17.1201 22.0644 18.2159 21.3204C18.9396 20.8291 19.9242 21.0192 20.4155 21.743C20.9048 22.4667 20.7168 23.4533 19.993 23.9426C18.5676 24.907 15.7776 26.029 12.5954 26.0129Z" fill="#096647"/>
<path d="M41.6417 26.3121C40.7663 26.3081 40.0607 25.5944 40.0648 24.721L40.1457 9.62265L33.1828 9.58626C33.1727 10.5021 33.1585 11.5211 33.1424 12.536C33.1201 14.1675 33.0959 15.791 33.0898 16.9757C33.0736 20.1377 33.0615 22.4243 31.0519 24.4784C29.8611 25.6995 28.0011 26.2899 26.3149 25.9866C24.8108 25.7157 23.5917 24.7594 22.969 23.3563C22.6152 22.5577 22.975 21.6217 23.7736 21.2679C24.5742 20.9141 25.5103 21.2719 25.8641 22.0725C26.0643 22.5234 26.3958 22.7842 26.875 22.8711C27.5381 22.9924 28.3225 22.7397 28.7875 22.2646C29.8146 21.2153 29.9056 20.1074 29.9238 16.9595C29.9298 15.7667 29.9521 14.1311 29.9763 12.4895C30.0006 10.8478 30.0248 9.2001 30.0309 7.98706C30.0349 7.11165 30.7486 6.40808 31.622 6.41213L41.7469 6.46469C42.6203 6.46874 43.3259 7.18241 43.3218 8.05782L43.2329 24.7372C43.2268 25.6106 42.5151 26.3161 41.6417 26.3121Z" fill="#096647"/>
<path d="M103.638 17.8471L91.1218 17.7803C90.2484 17.7763 89.5428 17.0626 89.5468 16.1892C89.5509 15.3158 90.2646 14.6103 91.138 14.6143L103.655 14.681C104.528 14.6851 105.236 15.3967 105.229 16.2721C105.225 17.1455 104.512 17.8531 103.638 17.8471Z" fill="#096647"/>
<path d="M91.0773 26.3606H91.0753C90.1999 26.3545 89.4963 25.6409 89.5003 24.7675L89.6055 8.3914C89.6115 7.51801 90.3232 6.81242 91.1966 6.81849H91.1986C92.074 6.82455 92.7776 7.53621 92.7715 8.41162L92.6684 24.7877C92.6623 25.6611 91.9507 26.3647 91.0773 26.3606Z" fill="#096647"/>
<path d="M103.592 26.4273C102.716 26.4212 102.013 25.7076 102.017 24.8342L102.12 8.4581C102.126 7.58269 102.84 6.87912 103.711 6.88317H103.715C104.589 6.89125 105.294 7.6029 105.288 8.47629L105.185 24.8524C105.179 25.7278 104.465 26.4314 103.592 26.4273Z" fill="#096647"/>
<path d="M128.302 26.5365C127.428 26.5325 126.723 25.8188 126.727 24.9454L126.812 8.57336C126.818 7.69997 127.529 6.99439 128.405 6.99843C129.28 7.00247 129.986 7.71615 129.98 8.59156L129.893 24.9616C129.889 25.837 129.175 26.5426 128.302 26.5365Z" fill="#096647"/>
<path d="M143.796 26.7185H143.756C141.073 26.7043 139.031 25.4791 138.014 23.2714C137.256 21.6237 137.264 19.8769 137.268 19.2198C137.272 18.2049 137.274 17.0525 137.274 16.0053C137.272 15.1339 137.272 14.3353 137.276 13.7652C137.294 10.1422 136.409 10.0836 135.934 10.0512C135.06 9.99261 134.399 9.2385 134.458 8.36511C134.518 7.49374 135.281 6.84477 136.144 6.89127C140.478 7.1824 140.452 12.1498 140.444 13.7814C140.438 14.3474 140.438 15.14 140.438 16.0053C140.438 17.0566 140.44 18.217 140.434 19.2158C140.432 19.7455 140.424 20.9363 140.889 21.9451C141.206 22.6305 141.849 23.5423 143.782 23.5524C143.788 23.5524 143.796 23.5524 143.806 23.5524C146.404 23.5666 148.891 21.4195 150.233 19.5736C150.747 18.864 151.738 18.7083 152.445 19.2239C153.153 19.7394 153.308 20.728 152.795 21.4357C150.925 24.0073 147.581 26.7387 143.796 26.7185Z" fill="#096647"/>
<path d="M155.656 26.7831C155.302 26.7811 154.944 26.7508 154.592 26.6922C153.177 26.4496 151.996 25.744 151.264 24.7028C150.296 23.33 149.989 22.1433 150.001 19.8142C150.023 15.6555 149.993 8.77956 149.993 8.71284C149.991 7.83743 150.694 7.12578 151.57 7.12173H151.586C152.453 7.12578 153.157 7.82934 153.161 8.69869C153.161 8.76743 153.191 15.6575 153.169 19.8304C153.157 21.8016 153.395 22.2322 153.85 22.8792C154.18 23.3462 154.792 23.512 155.126 23.5686C155.896 23.7 156.751 23.5423 157.265 23.1784C157.975 22.6729 158.963 22.8387 159.473 23.5544C159.978 24.2661 159.81 25.2547 159.099 25.7601C158.155 26.4314 156.919 26.7892 155.656 26.7831Z" fill="#096647"/>
<path d="M70.3787 58.7469H70.3363C67.6534 58.7327 65.6115 57.5075 64.5946 55.2998C63.8364 53.6521 63.8445 51.9053 63.8465 51.2482C63.8526 50.2353 63.8546 49.0809 63.8526 48.0337C63.8546 47.1623 63.8546 46.3637 63.8566 45.7936C63.8768 42.1706 62.9893 42.112 62.5122 42.0796C61.6408 42.021 60.9797 41.2669 61.0383 40.3935C61.0969 39.5221 61.8672 38.8853 62.7244 38.9197C67.0591 39.2108 67.0328 44.1782 67.0247 45.8097C67.0206 46.3758 67.0186 47.1684 67.0206 48.0337C67.0186 49.087 67.0186 50.2454 67.0146 51.2442C67.0126 51.7739 67.0045 52.9647 67.4695 53.9735C67.7849 54.6569 68.4278 55.5707 70.3605 55.5808H70.3868C72.9868 55.5929 75.4715 53.4479 76.8139 51.602C77.3275 50.8944 78.3181 50.7367 79.0257 51.2523C79.7333 51.7678 79.889 52.7564 79.3735 53.4641C77.5054 56.0337 74.1634 58.7671 70.3787 58.7469Z" fill="#096647"/>
<path d="M82.2362 58.8115C81.8824 58.8095 81.5266 58.7792 81.1728 58.7185C79.7576 58.4759 78.5749 57.7724 77.843 56.7312C76.8766 55.3584 76.5693 54.1716 76.5814 51.8426C76.6037 47.6839 76.5734 40.81 76.5734 40.7412C76.5693 39.8658 77.2749 39.1542 78.1503 39.1501H78.1665C79.0338 39.1562 79.7374 39.8577 79.7394 40.7271C79.7414 40.7958 79.7697 47.6859 79.7475 51.8588C79.7374 53.83 79.9759 54.2606 80.4308 54.9075C80.7604 55.3746 81.373 55.5403 81.7065 55.599C82.4708 55.7284 83.332 55.5727 83.8435 55.2088C84.5552 54.6993 85.5458 54.8671 86.0513 55.5808C86.5587 56.2945 86.3909 57.2831 85.6793 57.7885C84.7351 58.4597 83.4998 58.8176 82.2362 58.8115Z" fill="#096647"/>
<path d="M71.9072 39.0591C69.7581 39.049 67.8455 37.927 66.7558 36.0245C66.3211 35.2643 66.5839 34.2959 67.3421 33.8612C68.1002 33.4286 69.0687 33.6894 69.5033 34.4496C70.2797 35.8062 71.5412 35.9052 72.0548 35.8911C73.0879 35.8527 74.0118 35.2866 74.4121 34.4516C74.7902 33.6611 75.7404 33.3295 76.5228 33.7076C77.3133 34.0836 77.6469 35.0298 77.2688 35.8183C76.351 37.7329 74.4 38.9722 72.172 39.0551C72.0831 39.0591 71.9941 39.0591 71.9072 39.0591Z" fill="#096647"/>
<path d="M115.971 26.4718C115.096 26.4677 114.39 25.7541 114.394 24.8787C114.4 24.0053 115.114 23.2997 115.987 23.3037C118.195 23.3159 120.829 22.7437 120.845 19.9497C120.849 18.9004 120.407 16.4601 116.179 16.4379C115.304 16.4339 114.598 15.7202 114.602 14.8468C114.606 13.9714 115.322 13.2658 116.195 13.2719C121.62 13.3002 124.03 16.6542 124.011 19.9658C123.989 24.0053 120.908 26.4981 115.971 26.4718Z" fill="#096647"/>
<path d="M112.287 26.4516C111.414 26.4475 110.708 25.7339 110.712 24.8605L110.799 8.48843C110.803 7.61504 111.517 6.90946 112.39 6.9135C113.266 6.91754 113.971 7.63122 113.967 8.50461L113.88 24.8766C113.874 25.7521 113.161 26.4576 112.287 26.4516Z" fill="#096647"/>
<path d="M21.0989 65.9988C20.2234 65.9948 19.5199 65.2811 19.5239 64.4077L19.6432 41.7299C19.6473 41.1577 19.9586 40.6321 20.46 40.3531C24.7137 37.9937 29.4284 37.7592 32.7683 39.7364C35.4916 41.3498 36.9796 44.249 36.9594 47.8982C36.921 55.3988 30.4838 58.2192 24.9867 58.3546C24.1497 58.3748 23.3632 58.3789 22.7223 58.3708L22.69 64.4239C22.6859 65.2973 21.9723 66.0049 21.0989 65.9988ZM22.7385 55.2027C23.3571 55.2108 24.1113 55.2088 24.9078 55.1886C30.4474 55.0531 33.7691 52.3197 33.7934 47.882C33.8075 45.367 32.8937 43.4928 31.155 42.4617C29.0099 41.1901 25.8075 41.3033 22.8052 42.7084L22.7385 55.2027Z" fill="#096647"/>
<path d="M78.5203 26.2737L71.236 26.2353C70.3626 26.2292 69.657 25.5175 69.661 24.6421L69.7136 14.869C69.7176 13.9936 70.4313 13.288 71.3047 13.2941C72.1801 13.2981 72.8857 14.0118 72.8817 14.8852L72.8372 23.0753L78.5385 23.1056C80.9989 23.1198 82.0017 21.6884 82.121 20.3439C82.2423 18.9792 81.4498 17.4407 79.4058 17.0869C78.5445 16.9373 77.9663 16.1185 78.1159 15.2572C78.2655 14.3939 79.0884 13.8198 79.9476 13.9673C83.7728 14.6305 85.5256 17.8188 85.2769 20.6229C85.0323 23.3603 82.8145 26.2959 78.5203 26.2737Z" fill="#096647"/>
<path d="M71.4563 17.6772C70.6881 17.6732 70.0168 17.1071 69.9016 16.3247C69.7742 15.4594 70.3707 14.6547 71.236 14.5274C71.4038 14.5031 75.3866 13.9209 79.6848 13.9431C80.5582 13.9471 81.2638 14.6608 81.2597 15.5362C81.2557 16.4096 80.542 17.1152 79.6686 17.1112C75.6191 17.0889 71.7374 17.653 71.6989 17.6591C71.6181 17.6712 71.5372 17.6772 71.4563 17.6772Z" fill="#096647"/>
<path d="M80.4066 17.1152C80.0305 17.1152 79.6524 16.9777 79.3512 16.7048C78.7042 16.1185 78.6557 15.1157 79.242 14.4687C79.986 13.6499 80.3075 12.7503 80.2246 11.7252C80.1296 10.5627 79.1571 9.78638 77.6853 9.70147C76.7027 9.64284 74.9438 9.83288 72.9039 10.5021L72.8796 14.8872C72.8756 15.7606 72.1639 16.4662 71.2885 16.4601C70.4151 16.4561 69.7095 15.7424 69.7136 14.869L69.7439 9.37799C69.7459 8.73104 70.1442 8.14877 70.7487 7.91223C73.2354 6.93775 75.9021 6.42423 77.8693 6.53947C80.9423 6.71738 83.1561 8.69869 83.3805 11.4685C83.5342 13.3608 82.9155 15.1339 81.5893 16.5956C81.2739 16.9433 80.8412 17.1172 80.4066 17.1152Z" fill="#096647"/>
<path d="M13.7943 58.2414C13.024 58.2374 12.3508 57.6713 12.2376 56.8868C12.187 56.5553 10.8749 48.62 2.31287 48.5755C1.43947 48.5694 0.733888 47.8578 0.739953 46.9823C0.743996 46.109 1.45767 45.4034 2.33106 45.4074C10.9113 45.4539 12.2942 40.0599 12.3468 39.8294C12.5489 38.9864 13.396 38.4547 14.2411 38.6447C15.0862 38.8368 15.624 39.6677 15.438 40.5148C15.3915 40.7352 14.9204 42.7246 13.0341 44.6998C12.2032 45.5712 11.0043 46.5214 9.32628 47.2634C13.2707 49.6632 14.9952 53.8401 15.3713 56.4299C15.4966 57.2972 14.8962 58.0999 14.0309 58.2252C13.952 58.2374 13.8732 58.2414 13.7943 58.2414Z" fill="#096647"/>
<path d="M116.024 16.4379L112.516 16.4177C111.642 16.4137 110.937 15.702 110.941 14.8266C110.947 13.9532 111.659 13.2476 112.534 13.2517L116.04 13.2699C116.913 13.2739 117.621 13.9876 117.615 14.861C117.611 15.7364 116.897 16.442 116.024 16.4379Z" fill="#096647"/>
<path d="M115.971 26.4718L112.463 26.4536C111.59 26.4475 110.884 25.7359 110.888 24.8605C110.892 23.9871 111.606 23.2815 112.479 23.2855L115.987 23.3037C116.861 23.3098 117.566 24.0215 117.562 24.8969C117.558 25.7703 116.844 26.4758 115.971 26.4718Z" fill="#096647"/>
</g>
<defs>
<clipPath id="clip0_4_10">
<rect width="159.764" height="66" fill="white"/>
</clipPath>
</defs>
</svg>
